<?xml version="1.0" encoding="UTF-8"?>
<svg width="700pt" height="700pt" version="1.1" viewBox="0 0 700 700" xmlns="http://www.w3.org/2000/svg">
 <path d="m105.04 106.86c-4.832-0.019531-8.7656 3.8828-8.7852 8.7148v289.69c-0.007812 2.332 0.91406 4.5703 2.5625 6.2188 1.6484 1.6523 3.8906 2.5742 6.2227 2.5664h47.254c4.1016 22.133 23.398 39.086 46.535 39.086s42.434-16.949 46.535-39.086h220.84c5.6836 19.949 23.93 34.691 45.512 34.691s39.828-14.746 45.512-34.691h37.82-0.003906c4.832-0.019532 8.7344-3.9531 8.7148-8.7852v-114.78c0-1.1289-0.22266-2.25-0.64844-3.2969l-40.555-99.207c-1.3555-3.293-4.5742-5.4336-8.1367-5.418h-119.44v-66.992h0.003906c-0.019531-4.832-3.9531-8.7344-8.7852-8.7148zm8.7344 17.434 303.7-0.003906v272.26h-172.1c-4.0781-22.16-23.398-39.137-46.551-39.137-23.156 0-42.473 16.977-46.555 39.137h-38.504zm321.2 75.777h113.56l33.445 81.707-147.01-0.003906zm0 99.137h151.28v97.344h-27.395c-2.1797-24.266-22.488-43.527-47.152-43.527s-44.969 19.262-47.152 43.527h-29.578zm76.734 71.316c16.535 0 29.84 13.422 29.84 30.352 0 16.93-13.305 30.367-29.84 30.367-16.535 0-29.84-13.441-29.84-30.367 0-16.93 13.305-30.352 29.84-30.352zm-312.88 4.3906c16.535 0 29.906 13.422 29.906 30.352 0 16.93-13.371 30.367-29.906 30.367s-29.84-13.441-29.84-30.367c0-16.93 13.305-30.352 29.84-30.352z"/>
</svg>
